<?xml version="1.0" encoding="utf-8"?>
<svg viewBox="-298.827 -287.626 271.244 579.828" xmlns="http://www.w3.org/2000/svg">
  <defs>
    <linearGradient gradientUnits="userSpaceOnUse" x1="306" y1="-0.001" x2="306" y2="611.999" id="gradient-0" gradientTransform="matrix(0.924712, -0.289641, 0.45251, 0.836384, 23.0385, 88.63009)">
      <stop offset="0" style="stop-color: rgba(63, 23, 165, 1)"/>
      <stop offset="1" style="stop-color: rgba(29, 11, 76, 1)"/>
    </linearGradient>
    <linearGradient gradientUnits="userSpaceOnUse" x1="-153.994" y1="-1027.251" x2="-153.994" y2="-644.83" id="gradient-1" gradientTransform="matrix(-0.945587, -0.333625, 0.319264, -0.860925, 68.455916, -595.621768)">
      <stop offset="0" style="stop-color: rgba(101, 58, 220, 1)"/>
      <stop offset="1" style="stop-color: rgb(29, 11, 76);"/>
    </linearGradient>
  </defs>
  <g transform="matrix(0.700437, 0, 0, 0.920563, -375.888403, -287.624943)" style="">
    <path d="M 216.02 611.195 C 221.998 614.373 228.304 607.491 224.644 601.795 C 204.778 570.876 185.966 518.848 215.938 451.843 C 265.92 340.106 296.334 282.234 296.334 282.234 C 296.334 282.234 312.511 349.77 356.363 409.819 C 398.568 467.612 421.669 540.297 384.427 600.848 C 380.932 606.531 388.188 612.405 393.034 610.197 C 440.157 588.732 490.84 539.312 496.674 445.18 C 498.825 416.416 495.599 376.146 479.468 325.329 C 458.727 260.923 433.229 230.87 418.476 217.964 C 414.063 214.103 407.2 217.525 407.562 223.377 C 411.861 292.871 385.717 310.506 370.836 270.763 C 364.893 254.889 361.427 227.433 361.427 193.997 C 361.427 138.332 345.277 81.03 309.672 34.466 C 300.413 22.357 289.579 11.042 277.149 1.393 C 272.649 -2.101 266.126 1.411 266.538 7.093 C 269.272 44.829 266.795 152.978 171.914 282.182 C 85.885 402.033 119.221 494.078 131.05 519.008 C 153.666 566.767 185.212 594.814 216.02 611.195 Z" style="fill: url(#gradient-0);"/>
  </g>
  <path style="fill-rule: nonzero; fill: url(#gradient-1);" d="M -165.201 288.544 C -165.201 263.668 -168.085 242.186 -172.955 223.239 C -199.635 119.439 -288.25 91.697 -284.087 -0.477 C -281.337 -61.364 -237.241 -97.142 -186.893 -104.181 C -199.056 -88.066 -252.713 -7.818 -169.469 56.548 C -166.795 -5.489 -121.889 -15.355 -121.889 -59.981 C -121.889 -78.772 -125.343 -91.394 -129.34 -99.728 C -87.467 -87.172 -65.112 -48.172 -46.198 2.003 C 5.675 139.611 -165.201 288.544 -165.201 288.544 Z" transform="matrix(-0.999507, -0.031382, 0.031382, -0.999507, -331.93424, 179.153323)"/>
</svg>